<?xml version="1.0" encoding="UTF-8" standalone="no"?><!DOCTYPE svg PUBLIC "-//W3C//DTD SVG 1.1//EN" "http://www.w3.org/Graphics/SVG/1.1/DTD/svg11.dtd"><svg width="100%" height="100%" viewBox="0 0 3334 3334" version="1.1" xmlns="http://www.w3.org/2000/svg" xmlns:xlink="http://www.w3.org/1999/xlink" xml:space="preserve" xmlns:serif="http://www.serif.com/" style="fill-rule:evenodd;clip-rule:evenodd;stroke-linejoin:round;stroke-miterlimit:2;"><path d="M1666.524,188.89c-815.931,0 -1477.641,661.621 -1477.641,1477.828c-0,652.816 423.39,1206.749 1010.616,1402.26c73.938,13.511 100.88,-32.133 100.88,-71.311c0,-35.111 -1.269,-128 -1.996,-251.289c-411.049,89.267 -497.778,-198.133 -497.778,-198.133c-67.224,-170.733 -164.111,-216.2 -164.111,-216.2c-134.176,-91.622 10.16,-89.8 10.16,-89.8c148.327,10.422 226.344,152.311 226.344,152.311c131.816,225.8 345.916,160.578 430.102,122.756c13.427,-95.444 51.62,-160.578 93.804,-197.511c-328.133,-37.378 -673.14,-164.104 -673.14,-730.376c0,-161.391 57.607,-293.207 152.138,-396.536c-15.24,-37.378 -65.953,-187.611 14.516,-391.096c0,0 124.011,-39.736 406.331,151.409c117.844,-32.749 244.309,-49.078 369.956,-49.713c125.556,0.636 251.929,16.964 369.956,49.713c282.138,-191.144 405.96,-151.409 405.96,-151.409c80.667,203.484 29.956,353.718 14.8,391.096c94.711,103.329 151.867,235.144 151.867,396.536c0,567.722 -345.556,692.642 -674.687,729.198c52.98,45.644 100.244,135.822 100.244,273.711c0,197.489 -1.813,356.889 -1.813,405.333c0,39.556 26.671,85.556 101.607,71.111c586.782,-195.844 1009.804,-749.333 1009.804,-1402.06c0,-816.207 -661.711,-1477.828 -1477.92,-1477.828Z" style="fill:#fff;"/></svg>